<svg width="37" height="37" viewBox="0 0 37 37" fill="none" xmlns="http://www.w3.org/2000/svg">
<rect width="37" height="37"/>
<g clip-path="url(#clip0)">
<path d="M11.6246 23.3558C11.535 23.4439 11.4736 23.496 11.4232 23.5561C11.1212 23.89 10.8242 24.2259 10.5242 24.5603C10.3363 24.7689 10.1472 24.9764 9.95696 25.183C9.87481 25.2823 9.76984 25.3604 9.65092 25.4108C9.6053 25.4272 9.56288 25.4515 9.52558 25.4824C9.26837 25.7051 8.94371 25.7407 8.62962 25.8012C8.48468 25.8214 8.33702 25.7966 8.2068 25.7302C7.7638 25.5307 7.39306 25.2008 7.14473 24.785C7.1138 24.7294 7.09381 24.6684 7.08583 24.6053C7.01083 24.1713 7.06318 23.7443 7.16335 23.3208C7.29205 22.8 7.48744 22.2978 7.74472 21.8265C7.92895 21.4801 8.13432 21.1452 8.32056 20.8003C8.53392 20.415 8.77287 20.0442 9.03582 19.6905C9.44102 19.1323 9.85025 18.5777 10.3053 18.058C10.8861 17.3824 11.5237 16.7571 12.211 16.1888C12.3733 16.0579 12.5434 15.9369 12.7204 15.8264C12.8332 15.7643 12.9511 15.7117 13.0727 15.6692C13.1793 15.6296 13.2952 15.6221 13.4059 15.6477C14.01 15.7558 14.5209 16.0436 14.9573 16.4677C14.9914 16.5017 15.0232 16.538 15.0524 16.5763C15.1787 16.738 15.2246 16.9072 15.1501 17.1124C14.993 17.5484 14.848 17.9895 14.7021 18.4295C14.3145 19.5984 13.9209 20.7653 13.5444 21.9377C13.2977 22.7076 13.1271 23.4965 12.9806 24.2904C12.8256 25.1319 12.6534 25.9699 12.4803 26.8074C12.2502 27.9193 12.0101 29.0286 11.7791 30.1399C11.7148 30.4533 11.6222 30.7602 11.5023 31.057C11.2088 31.7753 10.9234 32.4972 10.5711 33.19C10.1684 33.978 9.71133 34.7274 9.13348 35.4017C8.74032 35.8708 8.23588 36.2352 7.6657 36.4619C7.1261 36.6747 6.57644 36.8504 6.00161 36.936C5.44188 37.0201 4.88316 37.0326 4.32192 36.918C4.00732 36.8539 3.69071 36.7993 3.38467 36.6997C2.608 36.4469 1.96874 35.9874 1.42159 35.3936C0.850792 34.7734 0.47227 34.0475 0.245258 33.2411C0.165225 32.9568 0.101806 32.6669 0.0474435 32.3766C-0.0567506 31.8204 0.018249 31.2753 0.19845 30.7451C0.421965 30.0758 0.747941 29.4448 1.16489 28.8744C1.33957 28.6444 1.53032 28.427 1.73569 28.2236C1.79377 28.1624 1.86634 28.1165 1.94678 28.0903C2.02722 28.0641 2.11298 28.0583 2.19626 28.0734C2.36639 28.095 2.43938 28.1946 2.3976 28.3568C2.37517 28.4427 2.34519 28.5264 2.30801 28.6071C2.03168 29.2203 1.83057 29.8644 1.70901 30.5254C1.57847 31.2186 1.55521 31.9276 1.64005 32.6279C1.67615 32.8978 1.74564 33.1623 1.84693 33.4153C2.123 34.1456 2.58257 34.7935 3.18183 35.297C3.61695 35.6701 4.14434 35.9209 4.7095 36.0234C5.24472 36.1135 5.79476 36.0449 6.29104 35.8262C6.735 35.6394 7.11251 35.3576 7.4558 35.0252C8.00698 34.4852 8.48226 33.8736 8.86871 33.207C9.3188 32.4495 9.68375 31.6451 9.95696 30.8082C10.2232 29.9867 10.4986 29.1672 10.6873 28.3242C10.8041 27.8016 10.8992 27.273 11.0044 26.7489C11.0402 26.5687 11.0759 26.3884 11.1142 26.2087C11.2652 25.5049 11.4207 24.8031 11.5622 24.0977C11.6172 23.8545 11.6382 23.6048 11.6246 23.3558ZM8.7016 24.3005C8.76753 24.2504 8.80881 24.2279 8.84354 24.1968C9.11737 23.95 9.40277 23.7143 9.66099 23.452C10.8122 22.2801 11.7106 20.9335 12.4118 19.4542C12.6923 18.8784 12.9097 18.2742 13.0601 17.6521C13.093 17.5437 13.1111 17.4314 13.114 17.3182C12.971 17.3432 12.8689 17.4238 12.7737 17.5049C12.6152 17.64 12.4616 17.7817 12.3167 17.9309C11.8244 18.438 11.3945 18.9972 10.9652 19.5568C10.7996 19.7726 10.6239 19.9808 10.4543 20.1936C10.2197 20.4874 9.9771 20.7763 9.78683 21.1027C9.64639 21.3449 9.50344 21.5857 9.37005 21.8315C9.20998 22.1269 9.05093 22.4232 8.90697 22.7261C8.76272 23.03 8.66418 23.3533 8.61452 23.6857C8.58515 23.8947 8.61532 24.1077 8.7016 24.3005Z" fill="black"/>
<path d="M27.4995 2.76675C27.3526 2.82082 27.2539 2.92494 27.1648 3.03958C27.0539 3.18716 26.9646 3.34964 26.8995 3.52215C26.6744 4.0869 26.4954 4.66881 26.3645 5.26222C26.0509 6.70744 25.7237 8.14916 25.4192 9.59638C25.2344 10.4719 25.0804 11.3545 24.9158 12.234C24.8433 12.619 24.7744 13.0044 24.7054 13.3899C24.6803 13.5316 24.6551 13.6737 24.639 13.8164C24.6347 13.8867 24.6347 13.9573 24.639 14.0276C24.7205 14.0677 24.7844 14.0276 24.8499 14.0036C25.2354 13.8655 25.6185 13.7213 26.0076 13.5906C26.7368 13.3443 27.468 13.1029 28.2012 12.8663C28.3915 12.8052 28.5898 12.7661 28.7851 12.7221C28.8203 12.7114 28.8583 12.7148 28.891 12.7316C28.9236 12.7485 28.9483 12.7774 28.9598 12.8122C29.0061 12.9378 29.0176 13.0625 28.926 13.1756C28.7187 13.4319 28.5093 13.6862 28.2083 13.8419C27.9374 13.9821 27.6641 14.1168 27.3933 14.2574C26.4254 14.762 25.4589 15.2701 24.4895 15.7722C24.4359 15.7977 24.3887 15.8347 24.3512 15.8805C24.3137 15.9263 24.2868 15.9797 24.2725 16.037C24.0198 16.8878 23.8159 17.7523 23.662 18.6261C23.5009 19.5228 23.3331 20.4186 23.1586 21.3133C22.9608 22.3335 22.7559 23.3517 22.5496 24.3704C22.3809 25.2089 22.2073 26.0464 22.0387 26.8849C22.0075 27.0091 21.9906 27.1364 21.9883 27.2644C21.9954 27.4862 21.8746 27.6348 21.643 27.7309C21.5231 27.7808 21.3908 27.7935 21.2635 27.7675C21.0571 27.7313 20.8595 27.6565 20.6811 27.5472C20.6142 27.5032 20.5517 27.4529 20.4944 27.397C20.4262 27.334 20.3754 27.2547 20.3468 27.1667C20.3182 27.0786 20.3126 26.9847 20.3308 26.8939C20.3454 26.8073 20.366 26.7217 20.3866 26.6361C20.7299 25.1814 21.0783 23.7282 21.415 22.2719C21.5338 21.7578 21.6249 21.2377 21.7266 20.7201C21.8813 19.9362 22.0348 19.1519 22.1871 18.3673C22.2445 18.0669 22.2964 17.7701 22.3502 17.4707C22.3573 17.4317 22.3563 17.3911 22.3623 17.3516C22.3728 17.2883 22.3683 17.2234 22.3493 17.162C22.3302 17.1007 22.2971 17.0446 22.2526 16.9982C22.1294 16.8607 22.0078 16.7218 21.8876 16.5817C21.8041 16.4846 21.722 16.386 21.643 16.2848C21.6058 16.2331 21.5721 16.1789 21.5423 16.1226C21.4663 15.9905 21.4709 15.8623 21.5746 15.7462C21.6426 15.6675 21.7152 15.5928 21.792 15.5224C22.0885 15.2637 22.4128 15.0382 22.7589 14.8501C22.7942 14.8306 22.8274 14.8081 22.8808 14.7755C22.9095 14.6509 22.9457 14.5127 22.9734 14.3751C23.3311 12.5966 23.6876 10.8177 24.043 9.03821C24.1855 8.31685 24.2987 7.58949 24.4487 6.86963C24.574 6.26892 24.7245 5.66821 24.8806 5.075C25.0552 4.38495 25.2803 3.70852 25.5541 3.05109C25.689 2.73522 25.84 2.42535 26.0031 2.12249C26.1014 1.94816 26.2161 1.78356 26.3458 1.63091C26.6021 1.31954 26.9338 1.24294 27.3465 1.39813C27.4883 1.45584 27.6186 1.53804 27.7316 1.64092C28.2198 2.05791 28.5485 2.58354 28.775 3.17474C28.8461 3.37005 28.9051 3.56949 28.9517 3.77195C28.99 3.95319 28.9939 4.13994 28.9633 4.32261C28.9463 4.48361 28.8744 4.63397 28.7594 4.74861C28.616 4.88778 28.469 5.02494 28.3145 5.15259C28.2559 5.19483 28.1884 5.2231 28.1171 5.23519C28.0935 5.24116 28.0688 5.24149 28.0451 5.23616C28.0213 5.23082 27.9992 5.21998 27.9804 5.20451C27.9617 5.18904 27.9468 5.16937 27.9372 5.14713C27.9275 5.12488 27.9233 5.10068 27.9249 5.0765C27.9254 4.98885 27.9425 4.90208 27.9752 4.8207C28.0809 4.58992 28.0759 4.35715 28.0301 4.11586C27.9777 3.80016 27.8898 3.49135 27.7678 3.19527C27.7004 3.03658 27.6274 2.8859 27.4995 2.76675Z" fill="black"/>
<path d="M31.4829 12.8812C31.6309 12.8312 31.7346 12.7921 31.8408 12.7576C32.4347 12.5617 33.029 12.3665 33.6236 12.1719C33.8522 12.0963 34.0797 12.0177 34.3097 11.9461C34.9918 11.7344 35.6738 11.5221 36.3735 11.383C36.5158 11.3577 36.6598 11.3426 36.8043 11.3379C36.9141 11.3324 36.9725 11.38 36.9881 11.4881C37.0208 11.7134 36.9881 11.9171 36.7832 12.0638C36.5566 12.2301 36.3127 12.3719 36.0559 12.4868C35.6954 12.644 35.3305 12.7906 34.9676 12.9418C34.0928 13.3058 33.2356 13.7087 32.3909 14.1372C32.0763 14.2969 31.7658 14.4661 31.4552 14.6333C31.3706 14.6789 31.2906 14.7334 31.2106 14.787C31.0216 14.9105 30.8759 15.0895 30.7938 15.2991C30.5925 15.7882 30.38 16.2713 30.2602 16.7874C30.2245 16.9431 30.1978 17.1008 30.1767 17.259C30.152 17.4432 30.156 17.6224 30.2512 17.7956C30.2859 17.8587 30.2804 17.9523 30.2713 18.0294C30.2416 18.2752 30.2114 18.522 30.1636 18.7647C29.9724 19.7049 29.7231 20.6324 29.4171 21.542C29.4096 21.5646 29.405 21.5881 29.397 21.6111C29.3139 21.8454 29.1453 21.93 28.9047 21.8559C28.787 21.8226 28.6832 21.7523 28.6087 21.6557C28.5262 21.5477 28.4507 21.4345 28.3827 21.3168C28.2636 21.0988 28.1718 20.8672 28.1094 20.627C28.0203 20.2961 28.0364 19.9592 28.0807 19.6258C28.1527 19.0856 28.3012 18.562 28.4653 18.0429C28.5619 17.738 28.6606 17.4342 28.7487 17.1268C28.7925 16.9736 28.8176 16.8154 28.8463 16.6582C28.8624 16.5834 28.8552 16.5054 28.8256 16.4348C28.796 16.3641 28.7455 16.3041 28.6807 16.2628C28.5491 16.1709 28.4237 16.0705 28.3052 15.9624C28.1549 15.8182 28.0125 15.666 27.8789 15.5064C27.7598 15.3541 27.682 15.174 27.6529 14.9832C27.6414 14.9408 27.6418 14.896 27.654 14.8537C27.6663 14.8115 27.6899 14.7733 27.7223 14.7435C27.785 14.6816 27.8544 14.6269 27.9292 14.5803C28.1019 14.4801 28.278 14.38 28.4567 14.2904C28.7859 14.1237 29.1242 13.9735 29.4483 13.7968C29.8586 13.5731 29.778 13.6707 29.9411 13.2537C30.1279 12.7776 30.2849 12.2905 30.4646 11.8115C30.6785 11.2403 30.8018 10.6451 30.9569 10.0594C31.3385 8.58922 31.8072 7.14281 32.3607 5.72774C32.4458 5.51249 32.5409 5.30024 32.6451 5.09299C32.7649 4.85471 32.8183 4.83919 33.0614 4.94632C33.3458 5.07146 33.5758 5.2712 33.7918 5.48846C33.9005 5.59859 33.9 5.71823 33.8507 5.8614C33.5054 6.8671 33.1676 7.8753 32.8268 8.88249C32.402 10.1397 31.9767 11.3966 31.5508 12.6535C31.5307 12.7125 31.5146 12.7741 31.4829 12.8812Z" fill="black"/>
<path d="M17.2366 24.4624C16.9601 24.4669 16.6858 24.4137 16.4312 24.3063C16.0117 24.1365 15.6414 23.8651 15.3541 23.5168C14.9423 23.0196 14.6847 22.414 14.6126 21.7738C14.601 21.6543 14.6089 21.5337 14.6363 21.4168C14.8331 20.4697 15.0183 19.5201 15.2695 18.585C15.4396 17.9517 15.6249 17.3225 15.8806 16.7167C15.9239 16.6136 15.9702 16.5115 16.02 16.4114C16.0517 16.3468 16.0905 16.2857 16.1282 16.2247C16.2445 16.0364 16.4202 15.9744 16.6271 16.0244C16.9668 16.0975 17.2817 16.2569 17.5411 16.487C17.6594 16.5941 17.6921 16.7082 17.6383 16.8719C17.3594 17.6976 17.0883 18.5257 16.8249 19.3564C16.6251 19.9645 16.4645 20.5846 16.3442 21.2131C16.2956 21.4563 16.262 21.7022 16.2435 21.9495C16.2315 22.2297 16.2645 22.51 16.3411 22.7799C16.3452 22.795 16.3517 22.81 16.3573 22.825C16.4655 23.1133 16.6381 23.1914 16.923 23.0798C17.1017 23.0059 17.2669 22.903 17.4118 22.7754C17.6997 22.5317 17.9871 22.2869 18.2635 22.0301C18.799 21.5325 19.2923 20.9938 19.7846 20.4542L21.1618 18.9409C21.194 18.9053 21.2252 18.8683 21.2594 18.8348C21.3646 18.7316 21.4693 18.7311 21.5745 18.8308C21.6501 18.9091 21.7014 19.0073 21.7225 19.1138C21.7436 19.2203 21.7334 19.3305 21.6933 19.4315C21.6214 19.5921 21.54 19.7484 21.4497 19.8995C21.0309 20.6109 20.5844 21.3047 20.1218 21.9885C19.8899 22.3446 19.6281 22.6806 19.3391 22.9927C19.1675 23.1724 19.0124 23.3681 18.8413 23.5479C18.6702 23.7276 18.489 23.8983 18.3083 24.07C18.0042 24.3603 17.6277 24.472 17.2366 24.4624Z" fill="black"/>
<path d="M36.2753 13.6445C36.3856 13.8493 36.4148 14.08 36.4571 14.3063C36.6492 15.3539 36.7311 16.4186 36.7012 17.4831C36.6807 18.1469 36.6214 18.809 36.5235 19.466C36.3452 20.6694 36.0266 21.848 35.5742 22.9781C35.2347 23.8341 34.82 24.6586 34.3349 25.4421C33.8186 26.2826 33.2266 27.0748 32.5661 27.8089C31.9268 28.5188 31.2265 29.1721 30.4732 29.7612C29.1631 30.7874 27.7034 31.6089 26.1444 32.1976C25.2129 32.5496 24.2508 32.8155 23.2702 32.992C22.8595 33.0661 22.4447 33.1192 22.0284 33.1622C21.3161 33.2362 20.5996 33.2635 19.8836 33.2438C19.3612 33.2293 18.8407 33.1788 18.3233 33.1162C17.2463 32.9834 16.1863 32.7386 15.1607 32.3858C14.4302 32.1381 13.7206 31.8331 13.0385 31.4737C12.9822 31.4442 12.9268 31.4117 12.8719 31.3786C12.8629 31.3731 12.8599 31.3586 12.8438 31.3286C12.9107 31.3506 12.963 31.3646 13.0124 31.3851C13.9685 31.783 14.959 32.0938 15.9716 32.3137C16.5137 32.4319 17.0598 32.5225 17.611 32.5891C18.3696 32.6852 19.1342 32.7252 19.8988 32.7087C20.4212 32.6942 20.9447 32.6682 21.4642 32.6141C22.5197 32.5054 23.5622 32.2952 24.5769 31.9863C26.0161 31.5494 27.3892 30.9206 28.6586 30.1171C30.2919 29.0839 31.7317 27.7757 32.9134 26.251C33.8006 25.1108 34.5337 23.8598 35.094 22.5301C35.4791 21.6155 35.7823 20.6689 36 19.7012C36.1481 19.038 36.2568 18.3667 36.3257 17.6908C36.4048 16.9186 36.4332 16.142 36.4107 15.3661C36.3966 14.8377 36.355 14.3103 36.2859 13.7862C36.2799 13.7396 36.2789 13.6921 36.2753 13.6445Z" fill="black"/>
<path d="M4.36374 11.4297C4.18689 12.0605 4.05088 12.7019 3.95652 13.35C3.88555 13.8325 3.81861 14.3161 3.78136 14.8017C3.73102 15.479 3.69881 16.1578 3.7431 16.8391C3.7733 17.3017 3.79344 17.7647 3.8478 18.2258C3.90417 18.7103 3.97984 19.1918 4.07481 19.67C4.26634 20.6257 4.53913 21.5635 4.89024 22.4733C5.12594 23.0854 5.39703 23.6835 5.70215 24.2645C6.19202 25.2017 6.76474 26.0938 7.41355 26.9301C7.82514 27.463 8.2652 27.9735 8.73183 28.4594C8.82043 28.5515 8.91002 28.6432 9.00062 28.7363C8.95029 28.7863 8.92411 28.7363 8.89995 28.7207C8.53457 28.432 8.18602 28.1228 7.856 27.7946C6.49336 26.4509 5.39725 24.8641 4.62497 23.1171C4.19619 22.1517 3.86781 21.1453 3.64495 20.1135C3.43201 19.1281 3.3167 18.1243 3.30065 17.1164C3.25887 15.2743 3.56395 13.4406 4.20015 11.71C4.23035 11.6274 4.26457 11.5463 4.30082 11.4667C4.30887 11.4502 4.33756 11.4437 4.35669 11.4322L4.36374 11.4297Z" fill="black"/>
<path d="M20.6985 13.0148C20.6874 13.115 20.6169 13.169 20.5409 13.2151C20.4112 13.2955 20.2767 13.3681 20.1382 13.4323C19.6827 13.6326 19.2488 13.8774 18.8094 14.1096C18.6271 14.2109 18.4505 14.3221 18.2803 14.4425C18.1947 14.4957 18.1221 14.5671 18.0679 14.6518C18.0136 14.7364 17.9791 14.832 17.9668 14.9316C17.9531 15.0188 17.9257 15.1032 17.8857 15.1819C17.8329 15.2925 17.7483 15.3291 17.6265 15.2985C17.5641 15.2841 17.5047 15.2587 17.4513 15.2235C17.1741 15.0305 16.929 14.7955 16.725 14.5271C16.6996 14.5009 16.6834 14.4672 16.679 14.4311C16.6745 14.395 16.682 14.3584 16.7003 14.3269C16.7439 14.2418 16.7968 14.1618 16.8579 14.0881C17.2255 13.7052 17.6696 13.4029 18.1615 13.2006C18.2355 13.169 18.3136 13.1484 18.3936 13.1395C18.6012 13.1121 18.8042 13.0577 18.9976 12.9778C19.1324 12.926 19.2728 12.8901 19.4159 12.8707C19.6943 12.8306 19.9696 12.7776 20.254 12.7861C20.486 12.7906 20.5479 12.8241 20.6985 13.0148Z" fill="black"/>
<path d="M24.6756 0.789565C24.5497 0.76854 24.4239 0.754523 24.2975 0.725489C23.6798 0.581723 23.0548 0.471263 22.4251 0.394594C21.5471 0.28156 20.6613 0.238873 19.7764 0.266943C19.3828 0.28146 18.9902 0.317002 18.5971 0.346037C17.932 0.39826 17.2715 0.496956 16.6204 0.641389C15.1814 0.947324 13.7883 1.43713 12.4758 2.09862C11.3844 2.64879 10.3529 3.3094 9.39777 4.06996C9.12697 4.28422 8.86976 4.51449 8.60701 4.73826C8.54418 4.79953 8.47176 4.85025 8.39258 4.88844C8.44795 4.82486 8.5008 4.75878 8.55918 4.69821C9.00627 4.23751 9.48366 3.80688 9.98821 3.40918C10.756 2.80054 11.58 2.26552 12.4491 1.81128C13.4173 1.30434 14.4359 0.898852 15.4884 0.60134C16.0763 0.43888 16.6724 0.307209 17.2743 0.206871C18.1969 0.0476819 19.1276 -0.00287844 20.0608 0.00012513C20.6161 0.0037181 21.1708 0.0396568 21.7219 0.107754C22.6552 0.218122 23.5762 0.41419 24.4732 0.69345C24.5447 0.715476 24.6353 0.706465 24.6746 0.793569L24.6756 0.789565Z" fill="black"/>
<path d="M9.06241 8.84079H7.75369C7.32936 8.84079 6.90504 8.84079 6.4792 8.84079C6.449 9.05655 6.53608 9.21023 6.63021 9.3564C6.77449 9.58074 6.98934 9.75129 7.24128 9.84148C7.39194 9.89902 7.55343 9.92311 7.71443 9.91206C7.86703 9.90013 8.01623 9.86095 8.15487 9.79643C8.30238 9.731 8.43302 9.63308 8.53691 9.51009C8.63255 9.39295 8.7161 9.2663 8.8057 9.14315C8.8412 9.13873 8.87724 9.14361 8.91026 9.15731C8.94328 9.17101 8.97213 9.19305 8.99395 9.22124C8.76493 9.92859 7.93691 10.3286 7.19346 10.0933C6.82507 9.9763 6.51841 9.71872 6.3408 9.37708C6.16319 9.03545 6.12915 8.63768 6.24615 8.27111C6.36194 7.90401 6.61953 7.59763 6.96232 7.41929C7.30511 7.24095 7.70507 7.20523 8.07432 7.31998C8.74328 7.52272 9.23606 8.2606 9.06241 8.84079ZM6.45806 8.57347C7.26342 8.57347 8.03859 8.57748 8.81527 8.57047C8.82332 8.03533 8.28171 7.53073 7.70185 7.51071C7.53694 7.50287 7.37217 7.52902 7.2179 7.58751C7.06363 7.64601 6.92318 7.73558 6.80537 7.85061C6.70168 7.94177 6.61749 8.05274 6.55782 8.17693C6.49815 8.30111 6.46422 8.43597 6.45806 8.57347Z" fill="black"/>
<path d="M3.01802 10.0886C2.98681 9.85328 2.97271 7.28523 2.99587 6.53984C2.99587 6.5013 3.00442 6.46325 3.01046 6.41269C3.36281 6.38466 3.70459 6.34411 4.04989 6.38366C4.24181 6.40048 4.43143 6.43723 4.61566 6.49329C4.98249 6.6123 5.30192 6.84394 5.52803 7.1549C5.75415 7.46585 5.87529 7.8401 5.87404 8.22384C5.88244 8.6523 5.73936 9.07009 5.46975 9.40437C5.20013 9.73866 4.82108 9.96821 4.39871 10.053C4.25693 10.0799 4.11316 10.0952 3.96885 10.0986C3.71717 10.1056 3.47003 10.1016 3.22037 10.0986C3.15543 10.1001 3.09352 10.0931 3.01802 10.0886ZM3.28127 9.85779H3.91398C3.97022 9.86055 4.0266 9.85905 4.08261 9.85328C4.20127 9.83821 4.31893 9.81615 4.43496 9.7872C5.17036 9.58696 5.65055 8.86761 5.60827 8.13974C5.57001 7.48446 5.00424 6.66299 4.06549 6.64346C3.84855 6.63896 3.6316 6.64046 3.41416 6.64346C3.3688 6.64572 3.3236 6.6504 3.27875 6.65748C3.24201 6.85772 3.22339 9.0298 3.25208 9.71111C3.25884 9.76054 3.26859 9.80952 3.28127 9.85779Z" fill="black"/>
<path d="M14.145 7.82275C14.151 7.61751 14.1561 7.46032 14.1606 7.31014C14.2311 7.24306 14.3005 7.26008 14.379 7.28011C14.3901 7.30812 14.3977 7.33737 14.4017 7.36721C14.4044 7.67891 14.4057 7.99095 14.4057 8.30332C14.4057 8.82361 14.4057 9.34356 14.4057 9.86318C14.4057 9.93376 14.3972 10.0038 14.3926 10.0734C14.3615 10.0884 14.3276 10.0971 14.293 10.0989C14.2585 10.1007 14.2239 10.0956 14.1913 10.0839C14.1113 9.94127 14.1913 9.77357 14.1349 9.61138C14.0589 9.63591 14.0217 9.70098 13.9723 9.74754C13.7833 9.93503 13.5444 10.0651 13.2837 10.1225C12.1884 10.3493 11.4878 9.47972 11.4883 8.73584C11.4883 8.02499 11.9554 7.42228 12.654 7.28912C13.1287 7.19851 13.5651 7.30263 13.9356 7.62702C13.9925 7.68008 14.0493 7.73415 14.145 7.82275ZM14.1535 8.71681C14.1868 8.09708 13.6346 7.50888 12.9515 7.50537C12.4265 7.50537 11.7566 7.89734 11.74 8.68778C11.7361 8.84654 11.7641 9.00447 11.8223 9.15235C11.8805 9.30023 11.9677 9.43509 12.0789 9.54905C12.1901 9.66301 12.3231 9.75377 12.47 9.81605C12.6168 9.87832 12.7747 9.91085 12.9344 9.91173C13.7121 9.91824 14.1817 9.25395 14.1535 8.71681Z" fill="black"/>
<path d="M27.1946 29.3158L25.9629 27.4135C25.9878 27.3874 26.0147 27.3633 26.0434 27.3414C26.3736 27.1292 26.7033 26.9164 27.0355 26.7072C27.2026 26.5963 27.387 26.5137 27.5812 26.4629C27.6549 26.4435 27.732 26.4401 27.8071 26.4529C27.8823 26.4658 27.9538 26.4945 28.0168 26.5373C28.0798 26.58 28.1329 26.6357 28.1723 26.7006C28.2118 26.7655 28.2368 26.8381 28.2456 26.9134C28.2586 26.9929 28.2457 27.0745 28.2089 27.1462C28.1786 27.2023 28.1474 27.2578 28.1082 27.3329C28.1671 27.3244 28.2088 27.3204 28.2516 27.3114C28.3455 27.2859 28.4451 27.2906 28.5361 27.3248C28.6271 27.3589 28.705 27.4208 28.7585 27.5016C28.8929 27.6843 28.9317 27.8791 28.8159 28.0833C28.7671 28.1657 28.7086 28.2419 28.6417 28.3106C28.5765 28.3812 28.5036 28.4443 28.4243 28.4988C28.0236 28.7701 27.6224 29.0329 27.1946 29.3158ZM27.2902 28.9458C27.322 28.9338 27.353 28.9195 27.3828 28.9033C27.6466 28.7346 27.9139 28.5709 28.1701 28.3922C28.3008 28.2995 28.421 28.1929 28.5285 28.0743C28.6291 27.9632 28.6292 27.828 28.5511 27.6953C28.4731 27.5627 28.3629 27.4996 28.2109 27.5246C28.1317 27.5367 28.0545 27.5593 27.9813 27.5917C27.8726 27.6433 27.767 27.7013 27.6652 27.7654C27.4402 27.9056 27.2177 28.0493 26.9953 28.1929C26.95 28.222 26.9087 28.256 26.8589 28.2931C26.9898 28.5188 27.1338 28.7368 27.2902 28.9458ZM26.728 28.0753C26.9293 27.9797 27.6486 27.5216 27.785 27.397C27.8447 27.3438 27.8982 27.2842 27.9446 27.2193C28.0347 27.0921 28.0151 26.9645 27.9295 26.8408C27.8957 26.786 27.845 26.7434 27.785 26.7194C27.7251 26.6953 27.6589 26.691 27.5963 26.7072C27.4548 26.7375 27.3205 26.7946 27.2006 26.8754C26.9218 27.0486 26.6469 27.2258 26.3706 27.405C26.351 27.4238 26.3341 27.4452 26.3203 27.4686C26.4597 27.6688 26.5684 27.8891 26.728 28.0753Z" fill="black"/>
<path d="M20.2058 7.26198C20.3973 7.25831 20.5876 7.29279 20.7655 7.3634C20.9434 7.43401 21.1052 7.53931 21.2416 7.67312C21.3779 7.80692 21.4859 7.9665 21.5592 8.14247C21.6326 8.31843 21.6697 8.50722 21.6686 8.69769C21.6721 9.65633 20.8632 10.1524 20.2254 10.1594C19.5671 10.1664 18.7501 9.66685 18.7501 8.7052C18.7476 8.5146 18.7836 8.32544 18.8559 8.14891C18.9282 7.97239 19.0354 7.81209 19.1712 7.67751C19.3069 7.54294 19.4684 7.43682 19.6461 7.36544C19.8239 7.29407 20.0142 7.25889 20.2058 7.26198ZM20.2058 7.50427C19.6909 7.47674 18.9978 7.89474 18.9978 8.7057C18.9978 9.49614 19.6577 9.91414 20.2008 9.91814C20.764 9.92215 21.428 9.48713 21.4214 8.69869C21.4232 8.54011 21.3929 8.3828 21.3323 8.23612C21.2716 8.08944 21.1819 7.95641 21.0685 7.84495C20.955 7.73348 20.8202 7.64588 20.672 7.58735C20.5238 7.52882 20.3652 7.50057 20.2058 7.50427Z" fill="black"/>
<path d="M17.1972 9.12449L17.3794 9.20408C17.3797 9.23164 17.3762 9.25911 17.3688 9.28568C17.1086 9.81981 16.6858 10.1137 16.0842 10.1567C15.2416 10.2168 14.4393 9.44387 14.5858 8.47872C14.704 7.6988 15.3967 7.2773 15.9191 7.26278C16.5539 7.24275 17.0175 7.50657 17.3285 8.04821C17.352 8.08983 17.3689 8.13472 17.3789 8.18137C17.3828 8.20531 17.3786 8.22988 17.3668 8.25112C17.355 8.27237 17.3364 8.28906 17.3139 8.29851C17.2936 8.3121 17.269 8.31787 17.2448 8.31474C17.2205 8.3116 17.1982 8.29978 17.1821 8.28149C17.1444 8.23041 17.1107 8.17652 17.0814 8.1203C16.9236 7.84691 16.6666 7.64396 16.3631 7.55312C15.7792 7.37241 15.1017 7.72282 14.8938 8.2905C14.6109 9.06392 15.1832 9.93495 16.0651 9.90992C16.2471 9.90695 16.4259 9.86167 16.5871 9.7777C16.7484 9.69373 16.8877 9.57341 16.9938 9.42635C17.0648 9.33824 17.1217 9.24163 17.1972 9.12449Z" fill="black"/>
<path d="M16.8889 29.3489L16.6403 29.2693C16.6332 29.2127 16.6252 29.1691 16.6227 29.1191C16.6186 29.0226 16.5931 28.9282 16.5481 28.8427C16.503 28.7572 16.4394 28.6827 16.3619 28.6245C16.0277 28.3617 15.6482 28.236 15.2168 28.2921C15.1046 28.305 14.9966 28.342 14.9004 28.4007C14.8041 28.4595 14.7219 28.5384 14.6596 28.632C14.5008 28.8468 14.4309 29.1139 14.4643 29.3784C14.4883 29.5632 14.5827 29.7318 14.728 29.8495C14.9993 30.0794 15.3408 30.2115 15.697 30.2244C15.8258 30.2342 15.9551 30.2127 16.0738 30.1618C16.1924 30.1109 16.2968 30.032 16.378 29.9321C16.3987 29.9075 16.4168 29.882 16.4349 29.8575C16.5044 29.876 16.5592 29.887 16.6116 29.9075C16.6428 29.9231 16.6723 29.9417 16.6997 29.9631C16.5114 30.2674 16.2467 30.4376 15.8943 30.4682C15.4347 30.5077 15.02 30.3736 14.645 30.1178C14.2619 29.8575 14.1079 29.492 14.196 29.037C14.2821 28.5915 14.5111 28.2546 14.9591 28.0989C15.1714 28.0222 15.4005 28.0036 15.6225 28.0448C15.8442 28.0826 16.0587 28.1544 16.2582 28.2576C16.4158 28.3385 16.556 28.4492 16.671 28.5835C16.7628 28.6866 16.8301 28.8089 16.8678 28.9414C16.9055 29.0739 16.9128 29.2132 16.8889 29.3489Z" fill="black"/>
<path d="M9.69361 10.097H9.49227C9.47908 10.0759 9.46923 10.0529 9.46307 10.0289C9.45753 9.97333 9.45703 9.91727 9.45703 9.8617C9.45703 8.78942 9.45703 7.71715 9.45703 6.64487C9.45703 6.57428 9.46257 6.5037 9.46609 6.4186C9.6322 6.38506 9.79176 6.40458 9.94982 6.40108C10.1079 6.39757 10.272 6.40108 10.4325 6.40108C10.5931 6.40108 10.7386 6.39807 10.8916 6.40108C11.0446 6.40408 11.2107 6.38556 11.3743 6.4176C11.38 6.45155 11.3836 6.48582 11.3849 6.52022C11.3822 6.54908 11.3773 6.5777 11.3703 6.60582C11.2882 6.65588 11.2057 6.63786 11.1272 6.63836C10.7411 6.63836 10.3545 6.63836 9.96945 6.63836C9.89092 6.63836 9.80888 6.61984 9.7369 6.66339C9.69814 6.86763 9.69914 7.78423 9.74042 7.98897C9.90569 8.00186 10.0716 8.0052 10.2372 7.99898C10.4064 7.99898 10.5755 7.99898 10.7446 7.99898C10.9137 7.99898 11.0793 7.99347 11.2585 8.00649C11.2671 8.08158 11.2736 8.14215 11.2802 8.20172C11.248 8.21724 11.2298 8.23626 11.2062 8.23676C11.029 8.24077 10.8538 8.24277 10.6752 8.24327C10.4235 8.24327 10.1763 8.24327 9.92666 8.24327C9.86374 8.24327 9.80083 8.25028 9.72532 8.25529C9.71878 8.32537 9.7082 8.38644 9.7082 8.44752C9.7082 8.91157 9.7082 9.37562 9.7082 9.83967C9.70468 9.92127 9.69864 9.99986 9.69361 10.097Z" fill="black"/>
<path d="M22.1326 28.709L22.3471 28.6479C22.371 28.6872 22.3913 28.7286 22.4075 28.7716C22.4905 29.0719 22.5665 29.3723 22.6526 29.6726C22.689 29.8032 22.7368 29.9304 22.7956 30.0526C22.9466 30.359 23.1982 30.5001 23.541 30.4636C23.7336 30.4462 23.9205 30.3897 24.0902 30.2974C24.1982 30.2423 24.2887 30.1585 24.3515 30.0552C24.4144 29.952 24.4471 29.8334 24.446 29.7127C24.4483 29.5288 24.4232 29.3456 24.3716 29.169C24.2967 28.8917 24.2222 28.614 24.1481 28.336C24.136 28.2915 24.1304 28.2449 24.1199 28.1859L24.3605 28.1133C24.3798 28.151 24.3966 28.19 24.4108 28.2299C24.507 28.5929 24.6006 28.9558 24.6967 29.3187C24.734 29.4747 24.744 29.6359 24.7264 29.7953C24.7188 29.9194 24.6836 30.0403 24.6234 30.1493C24.5631 30.2583 24.4794 30.3526 24.3781 30.4255C24.1747 30.5699 23.9397 30.6642 23.6925 30.7004C23.5356 30.7356 23.3734 30.7414 23.2143 30.7174C23.0989 30.6997 22.9885 30.6578 22.8905 30.5944C22.7925 30.5311 22.7092 30.4477 22.6461 30.3499C22.5606 30.2244 22.4929 30.0878 22.4447 29.944C22.3279 29.562 22.2293 29.175 22.1256 28.7901C22.1238 28.7629 22.1261 28.7355 22.1326 28.709Z" fill="black"/>
<path d="M18.0772 7.30312C18.3178 7.33866 18.5352 7.29611 18.7587 7.33416V7.53439C18.5423 7.58846 18.3233 7.53439 18.0988 7.57144C18.0863 7.61493 18.0781 7.65952 18.0742 7.7046C18.0722 8.26426 18.0722 8.82426 18.0742 9.38459C18.0764 9.46456 18.086 9.54415 18.1029 9.62237C18.1143 9.69409 18.1479 9.7605 18.1989 9.81242C18.2499 9.86434 18.3159 9.89922 18.3878 9.91222C18.419 9.91973 18.4512 9.92073 18.4834 9.92574C18.4976 9.92652 18.5115 9.93028 18.5241 9.93677C18.5367 9.94326 18.5478 9.95234 18.5566 9.9634C18.5655 9.97447 18.5719 9.98727 18.5754 10.001C18.5789 10.0147 18.5795 10.0289 18.577 10.0429C18.577 10.0669 18.5715 10.0904 18.568 10.1235C18.4341 10.187 18.3047 10.1425 18.1789 10.0954C18.1108 10.0695 18.0489 10.0299 17.9969 9.97907C17.9449 9.92825 17.9041 9.86732 17.8769 9.80009C17.8303 9.68025 17.8101 9.5519 17.8175 9.42364C17.8175 8.89601 17.8175 8.36788 17.8175 7.83976V7.58946C17.7709 7.57709 17.7234 7.56805 17.6755 7.56243C17.5748 7.55692 17.4686 7.55792 17.3735 7.55642C17.3091 7.47733 17.3433 7.41025 17.3413 7.33065L17.7943 7.30863C17.8255 7.15094 17.8044 6.99976 17.8104 6.85008C17.8165 6.70841 17.7978 6.56474 17.825 6.41406H18.054C18.0802 6.56424 18.0651 6.70841 18.0681 6.85058C18.0712 6.99275 18.0752 7.13692 18.0772 7.30312Z" fill="black"/>
<path d="M18.9776 30.8321C19.2831 30.8596 19.5559 30.8481 19.8277 30.8586C20.092 30.8686 20.3563 30.8826 20.613 30.8942C20.6729 30.9722 20.6563 31.0398 20.6306 31.1124C20.6114 31.1242 20.59 31.1322 20.5677 31.1359C20.3266 31.1334 20.0855 31.1304 19.8444 31.1234C19.5308 31.1144 19.2177 31.1014 18.9046 31.0894C18.8422 31.0869 18.7798 31.0799 18.7269 31.0759C18.7123 31.0463 18.6987 31.0323 18.6992 31.0188C18.7174 30.356 18.7365 29.6931 18.7566 29.0299C18.7566 28.9669 18.7697 28.9043 18.7762 28.8442C18.8148 28.8251 18.8574 28.8156 18.9004 28.8165C18.9435 28.8173 18.9857 28.8286 19.0234 28.8492C19.046 29.501 18.9796 30.1538 18.9776 30.8321Z" fill="black"/>
<path d="M34.1198 7.95312C34.5406 8.37563 35.3399 9.96151 35.3329 10.356C35.2423 10.2338 34.2446 8.31656 34.1208 8.02371C34.1163 8.00042 34.116 7.97653 34.1198 7.95312Z" fill="black"/>
<path d="M29.5645 3.13281C30.0582 3.32454 31.1888 4.24814 31.4817 4.70819C31.4246 4.69706 31.3721 4.66936 31.3307 4.62859C30.5475 4.02588 29.6873 3.29701 29.5645 3.13281Z" fill="black"/>
<path d="M24.6699 0.794069H24.7907C24.7364 0.847633 24.7026 0.834116 24.6734 0.789062L24.6699 0.794069Z" fill="black"/>
<path d="M4.35709 11.4366C4.35709 11.4253 4.35349 11.4141 4.35144 11.4023C4.35144 11.4075 4.34733 11.4136 4.35144 11.4177C4.35474 11.424 4.35908 11.4297 4.36428 11.4345L4.35709 11.4366Z" fill="black"/>
<path d="M24.9107 0.867909L24.9102 0.851562L24.9312 0.859736L24.9107 0.867909Z" fill="black"/>
</g>
<defs>
<clipPath id="clip0">
<rect width="37" height="37" fill="white"/>
</clipPath>
</defs>
</svg>
