<svg xmlns="http://www.w3.org/2000/svg" width="324" height="486"><defs><path id="A" d="M0 0h324v486H0z"/></defs><g fill-rule="evenodd"><mask id="B" fill="#fff"><use href="#A"/></mask><use fill="#f8f8f8" href="#A"/><g mask="url(#B)" fill="#e6e6e6"><path d="M98.5 228.5c-3.8-.9-7.6-.5-11.5-.4v29.7c.2 0 .3.1.4.1 2.7 0 5.3.1 8 0 7.1-.2 13.2-5.6 14.3-12.5 1.2-7.7-3.6-15-11.2-16.9zm9.4 15.6c-.5 6.3-5.9 12.1-13.4 12h-5.7v-26c.1 0 .1-.1.2-.1 2.5 0 5-.1 7.5.1 6.8.6 12 7.2 11.4 14zm18.5-8.8c-6.1-1.2-12.2 2.7-13.6 8.9-1.5 6.5 2.6 12.4 8.6 13.9 6.2 1.5 11.8-2.1 13.8-7.3-.5-.2-1.1-.5-1.6-.7-2.7 6-8.2 7.2-12.1 6-3.8-1.1-6.9-4.9-6.9-8.4h21.2c.5-5-2.7-11.1-9.4-12.4zm-11.9 10.4c.1-4.6 4.6-8.7 9.4-8.8 5.7-.1 9.6 4.5 9.9 8.8h-19.3zm24.3 12.2h1.8V243h12.7v-1.9h-12.6v-11.2h13.4v-1.8h-15.3zm38.9-22.6l-.3-.2-.3.2-.6.3h0v4.6c-5.1-6.8-13.5-6.1-17.8-1.9-4.6 4.4-4.9 11.6-.6 16.4 2.1 2.3 4.8 3.6 7.9 3.8 4.3.2 7.7-1.6 10.5-5.2v4.7h1.8v-22.3h0c-.3-.3-.5-.4-.6-.4zm-10.9 21.2a9.82 9.82 0 0 1-9.8-9.8c0-5.4 4.4-9.7 9.8-9.7a9.82 9.82 0 0 1 9.8 9.8c0 5.3-4.5 9.7-9.8 9.7zm34.7-13h.4l.2-.3s.1-.2.4-.5h0c-1.8-4.8-7-8.4-12.9-7.5-5.5.9-9.8 6-9.7 11.6.1 5.8 4.5 10.8 10 11.5 6.3.8 11.1-3.2 12.6-7.5-.5-.2-1.1-.5-1.6-.7-2.7 6-8.2 7.2-12 6.1-4-1.1-7-4.9-7.1-9.2-.1-4.4 2.6-8.2 6.9-9.6 1.9-.6 3.8-.6 5.6-.1 3.1.9 5.2 3.1 6.5 6.1h0c.4.1.7.1.7.1zm23.6-8.4a11.61 11.61 0 0 0-11.6 11.6 11.61 11.61 0 0 0 11.6 11.6 11.61 11.61 0 0 0 11.6-11.6 11.61 11.61 0 0 0-11.6-11.6zm0 21.5a9.82 9.82 0 0 1-9.8-9.8 9.82 9.82 0 0 1 9.8-9.8 9.82 9.82 0 0 1 9.8 9.8 9.82 9.82 0 0 1-9.8 9.8zm-19.2-28.5h0v7.4h-3.8v1.9h3.9v14.8c-.1 1.5.1 2.6.5 3.5.4.8 1 1.5 1.7 1.9s1.5.7 2.4.8c.4 0 .7.1 1.3 0v-1.7h-.8c-.7-.1-1.3-.3-1.8-.6s-.8-.8-1.1-1.4c-.2-.6-.4-1.4-.4-2.5v-14.8h5.6v-1.9h-5.5v-7.4"/><path d="M178.4 239.8v-4.7h-1.8v22.3"/></g></g></svg>