<svg width="20" height="20" viewBox="0 0 20 20" fill="none" xmlns="http://www.w3.org/2000/svg">
<path fill-rule="evenodd" clip-rule="evenodd" d="M16.4197 4.36349L17.5 17.3339V17.3794C17.5 18.8243 16.2526 20 14.7215 20H5.2785C3.74741 20 2.5 18.8243 2.5 17.3794V17.3339L3.58031 4.36349C3.60363 4.10681 3.8057 3.91223 4.04663 3.91223H6.32383C6.32772 1.75533 7.97539 0 10 0C12.0246 0 13.6723 1.75533 13.6762 3.91223H15.9534C16.1982 3.91223 16.4003 4.10681 16.4197 4.36349ZM12.7435 3.91223C12.7396 2.3018 11.5117 0.993583 10 0.993583C8.48834 0.993583 7.26036 2.3018 7.25648 3.91223H12.7435ZM5.2785 19.0023H14.7215C15.7319 19.0023 16.5557 18.2861 16.5674 17.4001L15.5259 4.90582H13.6762V6.64873C13.6762 6.92196 13.4663 7.14552 13.2098 7.14552C12.9534 7.14552 12.7435 6.92196 12.7435 6.64873V4.90582H7.25648V6.64873C7.25648 6.92196 7.04663 7.14552 6.79015 7.14552C6.53368 7.14552 6.32383 6.92196 6.32383 6.64873V4.90582H4.47409L3.43264 17.396C3.4443 18.2861 4.26813 19.0023 5.2785 19.0023ZM9.5135 8.57142H10.4875V11.6329H13.4091V12.6533H10.4875V15.7143H9.5135V12.6533H6.59096V11.6329H9.5135V8.57142Z" fill="#22242A"/>
</svg>
